<?xml version="1.0" encoding="UTF-8"?>
<svg id="_장바구니" data-name="장바구니" xmlns="http://www.w3.org/2000/svg" viewBox="0 0 48 48">
  <defs>
    <style>
      .cls-1 {
        fill: #fff;
        font-family: Pretendard-Medium-KSCpc-EUC-H, Pretendard;
        font-size: 12px;
        font-weight: 500;
      }

      .cls-2 {
        fill: #1c1c1b;
      }

      .cls-3 {
        fill: none;
        stroke: #1c1c1b;
        stroke-miterlimit: 10;
        stroke-width: 2px;
      }

      .cls-4 {
        fill: #83b3ff;
      }
    </style>
  </defs>
  <path class="cls-3" d="M38.12,14.53H9.81c-1.27,0-2.32.73-2.41,1.66l-2.38,24.86c-.1,1.04,1.01,1.92,2.41,1.92h33.07c1.4,0,2.51-.88,2.41-1.92l-2.38-24.86c-.09-.94-1.14-1.66-2.41-1.66Z"/>
  <path class="cls-2" d="M33.01,12.9c-.15-4.87-4.14-8.79-9.05-8.79s-8.9,3.92-9.05,8.79h-.01v1.63h2v-1.35c0-3.89,3.17-7.06,7.06-7.06s7.06,3.17,7.06,7.06v1.35h2v-1.63h-.01Z"/>
  <circle class="cls-4" cx="37.14" cy="13.46" r="6.86"/>
  <text class="cls-1" transform="translate(34.22 17.96)"><tspan x="0" y="0">1</tspan></text>
</svg>