<?xml version="1.0" encoding="UTF-8"?>
<svg id="_장바구니" data-name="장바구니" xmlns="http://www.w3.org/2000/svg" viewBox="0 0 48 48">
  <defs>
    <style>
      .cls-1 {
        fill: #231f20;
      }
    </style>
  </defs>
  <path class="cls-1" d="M24,42.1L7.36,25.46c-4.37-4.37-4.37-11.49,0-15.86,2.12-2.12,4.94-3.29,7.93-3.29h0c3,0,5.81,1.17,7.93,3.29l.77.78.78-.78c2.12-2.12,4.94-3.29,7.93-3.29h0c3,0,5.81,1.17,7.93,3.29h0c4.37,4.37,4.37,11.49,0,15.86l-16.64,16.64ZM15.29,8.31c-2.46,0-4.78.96-6.52,2.7-3.59,3.59-3.59,9.44,0,13.04l15.23,15.22,15.23-15.23c3.59-3.59,3.59-9.44,0-13.04-1.74-1.74-4.06-2.7-6.52-2.7h0c-2.46,0-4.78.96-6.52,2.7l-2.19,2.19-2.19-2.19c-1.74-1.74-4.06-2.7-6.52-2.7Z"/>
</svg>